<svg width="48" height="48" xmlns="http://www.w3.org/2000/svg"><path d="M24.044 47.989c-.232 0-.476 0-.71-.011l4.89-13.447h6.74c1.186 0 2.483-.909 2.882-2.017l5.31-14.578c.864-2.383-.5-4.345-3.038-4.345h-9.345L22.936 35.13l-4.457 12.205C7.937 44.83.1 35.352.1 24.045.1 13.058 7.495 3.801 17.583.986l-4.59 12.604-7.627 20.93h5.077l6.485-17.793h3.814L14.256 34.52h5.077l6.042-16.606c.864-2.383-.5-4.345-3.038-4.345H18.07L22.958.122C23.313.11 23.678.1 24.033.1c13.225 0 23.945 10.72 23.945 23.944.01 13.214-10.72 23.945-23.934 23.945zm14.478-31.272h-3.813L29.376 31.36h3.814l5.332-14.644z" fill="#99A8B1"/></svg>