<?xml version="1.0" encoding="UTF-8" standalone="no"?>
<!DOCTYPE svg PUBLIC "-//W3C//DTD SVG 1.1//EN" "http://www.w3.org/Graphics/SVG/1.1/DTD/svg11.dtd">
<svg width="100%" height="100%" viewBox="0 0 63 63" version="1.1" xmlns="http://www.w3.org/2000/svg" xmlns:xlink="http://www.w3.org/1999/xlink" xml:space="preserve" style="fill-rule:evenodd;clip-rule:evenodd;stroke-linejoin:round;stroke-miterlimit:1.41421;">
    <g transform="matrix(1,0,0,1,-0.507748,-0.858135)">
        <g transform="matrix(2.46718,0,0,2.46718,-338.241,-337.185)">
            <path d="M162.519,140.168C162.519,138.428 161.107,137.016 159.367,137.016L140.454,137.016C138.714,137.016 137.302,138.428 137.302,140.168L137.302,159.081C137.302,160.821 138.714,162.233 140.454,162.233L159.367,162.233C161.107,162.233 162.519,160.821 162.519,159.081L162.519,140.168Z" style="fill:rgb(0,121,191);"/>
            <path d="M159.241,141.807C159.241,140.972 158.563,140.294 157.728,140.294L153.063,140.294C152.228,140.294 151.55,140.972 151.55,141.807L151.55,149.814C151.55,150.649 152.228,151.327 153.063,151.327L157.728,151.327C158.563,151.327 159.241,150.649 159.241,149.814L159.241,141.807Z" style="fill:white;"/>
            <path d="M148.271,141.807C148.271,140.972 147.593,140.294 146.758,140.294L142.093,140.294C141.258,140.294 140.58,140.972 140.58,141.807L140.58,156.118C140.58,156.953 141.258,157.631 142.093,157.631L146.758,157.631C147.593,157.631 148.271,156.953 148.271,156.118L148.271,141.807Z" style="fill:white;"/>
        </g>
    </g>
</svg>
