<svg width="331" height="105" xmlns="http://www.w3.org/2000/svg" xmlns:xlink="http://www.w3.org/1999/xlink">
  <defs>
    <path id="a" d="M.14.013h215.775V105H.14z"/>
  </defs>
  <g fill="none" fill-rule="evenodd">
    <path d="M135.549 59.835c0 3.241 0 7.247 2.282 10.297 1.33 1.525 3.8 3.624 8.36 3.624s7.03-2.099 8.36-3.624c2.279-3.05 2.279-6.862 2.279-10.297V32H165v28.791c0 5.911-.57 10.295-4.369 14.298C156.451 79.666 150.751 81 146 81c-4.75 0-10.26-1.525-14.628-5.91C127.569 70.894 127 66.51 127 60.79V32h8.549v27.835M232.597 78h7.63V30.667h-7.63V78zM236.5 7c3.016 0 5.5 2.651 5.5 5.87 0 3.218-2.484 5.867-5.5 5.867s-5.5-2.649-5.5-5.867C231 9.65 233.484 7 236.5 7zM267.01 37.853V78h-7.994V37.853H254v-7.647h5.016V13h7.995v17.206H275v7.647h-7.99M178 79V50.21c0-5.912.57-10.298 4.369-14.299C186.549 31.334 192.25 30 197 30s10.262 1.525 14.631 5.911c3.8 4.193 4.369 8.579 4.369 14.299V79h-8.168V51.163c0-3.24 0-7.245-2.28-10.297-1.33-1.525-3.802-3.621-8.361-3.621-4.562 0-7.033 2.096-8.362 3.621-2.28 3.052-2.28 6.865-2.28 10.297V79H178zM289.457 55.095c0 11.785 8.086 17.679 16.543 17.679 8.457 0 16.54-6.084 16.54-17.679 0-11.787-7.892-17.68-16.54-17.68-8.646 0-16.543 6.084-16.543 17.68zm-8.457 0C281 40.645 291.526 30 306 30s25 10.646 25 25.095c0 14.447-10.715 24.902-25 24.902-14.285.191-25-10.455-25-24.902z" fill="#424263"/>
    <g>
      <mask id="b" fill="#fff">
        <use xlink:href="#a"/>
      </mask>
      <path d="M83.556 50.605l-.093 12.036c-.01 1.23-1.006 2.265-2.229 2.265h-.018c-1.232 0-2.222-1.098-2.212-2.335l.093-12.013.002-.03-.002-.038c0-6.853-5.553-12.43-12.383-12.43-6.237 0-11.693 5.427-12.162 12.1a2.358 2.358 0 0 1-.035.257c0 .052.005.103.005.155l-.164 4.577c-.004.093-.007.185-.02.274-.239 9.115-7.68 16.456-16.815 16.456-9.245 0-16.74-7.514-16.807-16.777 0-.024.058-.045.058-.068v-.024c0-.002-.06-.01-.06-.011l.03-11.515c.011-1.227 1.005-2.11 2.228-2.11h.019c1.232 0 2.221.876 2.212 2.113l-.093 11.516c.016 6.84 5.565 12.398 12.383 12.398 6.827 0 12.38-5.575 12.38-12.428 0-.129.015-.255.036-.377l.154-4.188c.002-.11.018-.218.037-.321a1.73 1.73 0 0 1 .002-.246c.642-9.116 7.94-16.255 16.612-16.255 9.287 0 16.842 7.582 16.842 16.904l-.002.051.002.064zM52.296.013C23.413.013 0 23.515 0 52.506 0 81.498 23.413 105 52.296 105c28.882 0 52.296-23.502 52.296-52.494 0-28.991-23.414-52.493-52.296-52.493z" fill="#37D97A" mask="url(#b)"/>
    </g>
  </g>
</svg>
