<svg width="200" height="31" xmlns="http://www.w3.org/2000/svg"><path d="M11.133 9.544v10.965c1.465-.8 2.49-2.193 2.989-3.764l.117.06c-.323 3.912-2.96 7.824-7.06 7.824C3.046 24.629 0 21.517 0 16.538c0-3.734 2.402-6.076 5.479-8.18-.45-.12-.913-.18-1.377-.178-2.11 0-3.34 1.452-3.34 2.934H.586c-.03-.207-.03-.415-.03-.622 0-2.638 1.378-5.839 4.718-5.839 2.138 0 3.78 1.986 6.27 1.986.996 0 2.226-.474 2.724-1.571h.088c-.03 1.927-.615 3.913-3.223 4.476zm1.582 11.232c-1.465 1.57-3.047 2.905-5.097 2.905-3.809 0-6.739-3.024-6.739-7.41 0-2.578 1.055-3.97 2.227-5.601h-.117c-.733.74-2.666 2.608-2.666 5.779 0 4.86 3.017 7.854 6.972 7.854 2.754 0 4.63-1.926 5.48-3.497l-.06-.03zm1.172-14.374c-.498.948-1.553 2.163-3.691 2.163-2.139 0-4.102-1.482-5.83-1.482-1.583 0-2.667 1.068-3.077 1.868l.03.06c.556-.564 1.405-1.127 2.783-1.127 2.285 0 3.75 1.423 6.064 1.423 2.462 0 3.575-1.63 3.78-2.875l-.06-.03zM5.742 8.447c-1.494 1.571-2.871 3.29-2.871 6.639 0 1.837.615 3.734 1.992 4.92l.85-.446v-7.942l-.791.415-.147-.296 4.102-2.253c-1.113-.237-2.11-.74-3.135-1.037zm5.069 1.156c-.205.03-.41.03-.645.03-.41 0-.79-.03-1.172-.12v8.654l-3.838 2.106c.791.592 1.758.948 2.988.948.997 0 1.876-.208 2.666-.564V9.603zm-4.22 1.512l-.556.325v7.943l.557-.296v-7.972zm16.847 1.126v10.254c0 2.845-2.49 4.772-5.273 5.335l-.059-.119c1.378-.682 2.169-2.075 2.169-3.557v-10.61l-1.582-1.451-.616.681v8.269l.88.8v.06l-2.374 2.608-2.724-2.52v-.118l1.054-1.127V7.647l3.106-3.349.058.03v7.942l2.55-2.785 2.666 2.43.497-.534.235.208-.587.652zm-8.203 9.69v-.058l.615-.623V7.143l-.615.652v13.159l-.938.949v.059l2.285 2.074.41-.474-1.757-1.63zm5.977-8.86l-1.905-1.66-.41.444 1.7 1.542v10.669c0 .711-.147 1.452-.41 1.867l.03.03c.732-.534.995-1.334.995-2.371V13.07zm6.885 5.127v1.51l2.842 2.253 1.64-1.778.235.237-3.808 4.12-3.868-3.142-.586.622-.234-.237.674-.71v-7.499l5.537-4.09 2.9 4.742-5.332 3.972zm-2.168 2.608v-7.528l-.615.445v7.38l3.633 2.993.469-.504-3.487-2.786zm2.227-9.129l-.06.03v6.076l2.608-1.927-2.548-4.179zm.761-.592l-.527.385 2.579 4.179.527-.386-2.579-4.178zm23.61 13.425l-4.072-3.556-3.106 3.556-4.219-3.675v-5.809h-.82c-.733 0-1.113.475-1.29 1.037h-.088a4.76 4.76 0 0 1-.146-1.126c0-.77.205-2.785 2.344-2.785V7.054c0-.978-1.142-1.363-1.142-2.668 0-1.688 1.581-3.348 4.482-4.386l.118.089c-1.055.623-1.612 1.215-1.612 2.49 0 1.956 1.875 1.452 1.875 4.534V8.3l3.428-3.646 3.604 3.586 3.399-3.586 3.28 3.26V18.88l-6.035 5.631zm-10.46-4.149v-6.253h-1.64c-.85 0-1.23.563-1.29 1.067l.03.03c.293-.326.586-.504 1.26-.504h1.025v5.987l3.867 3.378.44-.533-3.691-3.172zm0-13.603c0-1.215-1.054-1.63-1.054-2.4 0-1.068.41-1.957 1.055-2.787l-.059-.029c-.879.682-1.699 1.779-1.699 2.845 0 1.067 1.143 1.57 1.143 2.52v5.245h.615V6.758zm6.183 2.964l-2.227-2.194-1.172 1.215v10.492l2.666 2.282.733-.83V9.722zm.937 10.58V9.307l-2.49-2.49-.47.474 2.345 2.282v11.055l3.955 3.467.469-.445-3.809-3.348zm5.684-10.966l-1.846-1.778-1.054 1.096v10.551l2.871 2.549.03-.03V9.336zm.937-.415L53.67 6.817l-.44.474 1.963 1.897v12.388l.615-.593V8.921zm12.45 15.59l-2.784-2.55-2.49 2.55-3.047-2.728-.41.445-.235-.237.528-.563v-7.942l5.508-4.031 3.164 2.49.557-.593.235.237-.645.681v8.21l1.553 1.452.498-.534.234.208-2.666 2.904zm-7.5-3.29v-8.002l-.616.444v7.854l2.813 2.549.469-.474-2.667-2.371zm4.716-7.795l-2.402-1.897-.088.06v8.624l1.992 1.748.498-.503v-8.032zm.938 8.061v-8.505l-2.49-2.046-.586.415 2.46 1.956v8.476l2.462 2.253.44-.475-2.286-2.074zm10.371-6.638h3.018v6.342l-4.658 3.32c-.616-.712-1.495-1.216-2.579-1.216-.878 0-1.582.297-2.52 1.097l-.146-.06 3.985-5.868h-2.461v-5.512l4.893-3.438c.586.474 1.025.74 1.787.74.586 0 1.436-.118 2.08-.651l.118.059-3.517 5.187zm-3.28 7.587c-.85 0-1.524.296-2.11.71v.06a3.342 3.342 0 0 1 1.377-.266c.673 0 1.728.326 2.431 1.156l.675-.504c-.558-.652-1.231-1.156-2.374-1.156zm3.134-4.98h-1.641l-3.428 5.01.03.059c.849-.622 1.67-1.037 2.665-1.037.88 0 1.787.415 2.344 1.126l.03-.03v-5.127zm-4.278 0v-4.77l-.615.444v4.98h2.373l.469-.653h-2.227zm6.124-5.808c-.615.445-.967.681-1.993.681-.586 0-1.289-.266-1.845-.86l-.059.03v4.327H75.7l2.813-4.149-.03-.03zm-1.406-.267c-.528 0-1.201-.266-1.641-.86l-.733.504c.557.682 1.084.978 1.904.978.528 0 1.29-.148 2.08-.83l.03-.089c-.498.208-1.113.297-1.64.297zm.497 5.098H75.67l-.44.622h1.73v5.75l.614-.445V16.48zm12.335-4.238v10.254c0 2.845-2.49 4.772-5.274 5.335l-.058-.119c1.377-.682 2.168-2.075 2.168-3.557v-10.61l-1.582-1.451-.615.681v8.269l.879.8v.06l-2.373 2.608-2.725-2.52v-.118l1.055-1.127V7.647l3.105-3.349.059.03v7.942l2.549-2.785 2.666 2.43.498-.534.234.208-.586.652zm-8.203 9.69v-.058l.615-.623V7.143l-.615.652v13.159l-.938.948v.06l2.285 2.074.41-.475-1.757-1.63zm5.976-8.86l-1.904-1.66-.41.444 1.699 1.542v10.669c0 .711-.146 1.452-.41 1.867l.03.03c.732-.534.996-1.334.996-2.371V13.07zm7.56 11.44l-2.52-2.342-.587.622-.234-.237.674-.74v-8.566l-1.23-1.185-.47.534-.234-.238 2.637-2.904 2.343 2.134.587-.652.263.207-.732.8V20.6l1.406 1.333.645-.682.234.238-2.783 3.022zm-1.73-2.905v-8.832l-1.523-1.422-.41.474 1.318 1.274v8.803l2.344 2.133.44-.474-2.168-1.956zm.88-12.388l-2.403-2.223 2.198-2.37 2.402 2.222-2.198 2.37zM92.896 6.52l-.439.444 1.904 1.808.44-.504-1.905-1.748zm14.733 17.99l-2.55-2.342v-8.654l-1.552-1.422-.82.889v8.001l.908.86v.118l-2.403 2.55-2.725-2.52v-.089l1.055-1.126v-7.469l-1.377-1.274-.556.622-.235-.237 2.666-2.934 2.666 2.401v.593l2.784-2.994 2.607 2.371.586-.622.264.237-.703.74v8.477l1.318 1.244.645-.71.234.236-2.812 3.053zm-7.735-2.58v-.058c0 .059.586-.593.586-.593v-8.418l-1.67-1.54-.41.444 1.465 1.363v7.824l-.909.949v.059l2.256 2.074.469-.503-1.787-1.6zm6.123-.236V13.01l-1.816-1.66-.469.504 1.67 1.512v8.624l2.197 2.075.469-.505-2.05-1.866zm9.874 8.15c-.967-1.067-1.64-1.512-2.549-1.512-.967 0-2.08.386-3.223 1.008l-.088-.088 4.043-4.742-2.87-2.312-.558.593-.234-.208.644-.71v-8.388l5.567-4.031 3.106 2.49.527-.593.235.237-.616.681v10.137c0 1.54.85 1.482.85 2.637 0 1.333-1.905 2.578-4.834 4.8zm-3.897-8.21v-8.387l-.615.445v8.21l2.9 2.37.44-.533-2.725-2.105zm2.051 5.928c-.967 0-1.846.296-2.666.86v.059c.527-.208 1.113-.474 2.11-.474.908 0 1.67.503 2.431 1.393l.586-.475c-.733-.859-1.612-1.363-2.46-1.363zm3.574-2.845c-.732-.475-.908-.978-.908-2.253v-.534l-4.864 5.69.03.03c.937-.563 1.787-.977 3.164-.977 1.172 0 1.963.473 2.871 1.244.557-.474.938-.948.938-1.689 0-.593-.499-1.037-1.23-1.511zm-.908-11.292L114.28 11.5l-.059.06v9.097l1.876 1.482.615-.71v-8.003zm1.787 10.877c-.762-.593-.85-1.097-.85-2.371v-9.01l-2.46-2.015-.557.385 2.402 1.927v9.128c0 1.274.06 1.63.85 2.163.703.474 1.26.978 1.26 1.66 0 .177-.03.474-.03.474l.03.03c.146-.149.322-.386.322-.771 0-.652-.322-1.096-.967-1.6zm7.032.207l-2.695-2.134-.557.623-.234-.238.644-.71V11.676h-1.7l-.058-.059 1.025-1.541h.732V8.09l3.106-3.348.059.06v5.274h2.344l.059.06-1.026 1.54h-1.377v8.98l1.612 1.246.615-.682.234.237-2.783 3.052zm-1.904-16.923l-.616.682v1.808h.616v-2.49zm0 14.167V11.677h-.616V22.11l2.49 1.956.44-.474-2.314-1.838zm14.267-9.217v8.298l-4.951 3.705-3.721-2.845-.44.504-.234-.238.528-.592v-8.12l5.186-3.765 3.457 2.727.556-.593.235.237-.616.682zm-7.88 8.536v-8.091l-.616.444v7.972l3.516 2.727.557-.415-3.457-2.637zm4.717-7.558l-2.462-1.956-.029.03v8.831l2.49 1.897v-8.802zm.937-.533l-2.725-2.135-.556.415 2.666 2.075v9.217l.615-.474v-9.098zm13.419 11.528l-2.55-2.341v-8.654l-1.552-1.422-.82.889v8.001l.908.86v.118l-2.403 2.55-2.725-2.52v-.089L141 20.776v-7.469l-1.377-1.274-.557.622-.234-.237 2.666-2.934 2.666 2.401v.593l2.784-2.994 2.607 2.371.586-.622.264.237-.703.74v8.477l1.318 1.244.645-.71.234.236-2.812 3.053zm-7.735-2.578v-.06c0 .06.586-.592.586-.592v-8.418l-1.67-1.54-.41.444 1.465 1.363v7.824l-.908.949v.059l2.256 2.074.469-.503-1.788-1.6zm6.123-.237V13.01l-1.816-1.66-.47.504 1.67 1.512v8.624l2.198 2.075.469-.505-2.051-1.866zm19.711 2.815c-.82-.889-1.113-1.185-2.08-1.452v5.809l-.059.03-1.172-1.068L160.477 31l-.06-.03V23c-1.024.237-2.109.77-3.164 1.837l-.058-.03c.205-2.282 1.318-3.97 3.222-4.623v-5.779h-.615c-.85 0-1.318.445-1.728 1.245h-.088c-.088-.267-.147-.682-.147-1.363 0-1.245.908-2.55 2.403-2.55h.175v-3.2l-1.2-1.097-.587.593-.205-.207 2.959-3.171 2.754 2.548V9.9l.645-.71V5.78h.322v3.113L169 4.653l3.31 3.053v12.892l-5.125 3.912zm-6.767-2.608c-1.201.237-2.05.978-2.608 1.956l.03.06c.82-.712 1.581-1.038 2.578-1.275v-.74zm.937-8.505h-1.611c-1.114 0-1.553.711-1.582 1.54l.029.03c.352-.593.703-.8 1.406-.888h1.143V30.23l.615-.593v-16.24zm0-5.335l-1.465-1.363-.469.503 1.32 1.186v3.349h.614V8.062zm3.428 1.689l-.644.682v17.16l.644.593V9.75zm3.838-.682l-1.728-1.6-1.788 1.956v10.432c1.524.149 2.579.593 3.487 1.6l.03-.029V9.07zm-3.516 12.833v.77c.997.238 1.407.534 2.11 1.364l.674-.534c-.704-.889-1.407-1.422-2.784-1.6zm4.454-13.306l-1.993-1.868-.469.504 1.846 1.719v13.781l.616-.474V8.596zm12.979 3.941v8.298l-4.952 3.705-3.72-2.845-.44.504-.235-.238.527-.592v-8.12l5.186-3.765 3.458 2.727.556-.593.234.237-.614.682zm-7.882 8.536v-8.091l-.615.444v7.972l3.516 2.727.557-.415-3.458-2.637zm4.717-7.558l-2.46-1.956-.03.03v8.831l2.49 1.897v-8.802zm.938-.533l-2.725-2.135-.556.415 2.666 2.075v9.217l.615-.474v-9.098zm9.023 1.867h3.018v6.342l-4.658 3.32c-.615-.712-1.494-1.216-2.578-1.216-.879 0-1.582.297-2.52 1.097l-.146-.06 3.984-5.868h-2.461v-5.512l4.893-3.438c.586.474 1.025.74 1.787.74.586 0 1.435-.118 2.08-.651l.118.059-3.517 5.187zm-3.28 7.587c-.85 0-1.524.296-2.11.71v.06a3.34 3.34 0 0 1 1.377-.266c.674 0 1.728.326 2.431 1.156l.675-.504c-.557-.652-1.23-1.156-2.374-1.156zm3.135-4.98h-1.641l-3.428 5.01.03.059c.849-.622 1.669-1.037 2.665-1.037.879 0 1.787.415 2.344 1.126l.03-.03v-5.127zm-4.278 0v-4.77l-.616.444v4.98h2.373l.47-.653h-2.227zm6.123-5.808c-.616.445-.967.681-1.993.681-.586 0-1.289-.266-1.845-.86l-.06.03v4.327h1.114l2.813-4.149-.029-.03zm-1.406-.267c-.528 0-1.201-.266-1.64-.86l-.733.504c.556.682 1.084.978 1.904.978.527 0 1.29-.148 2.08-.83l.03-.089c-.499.208-1.114.297-1.641.297zm.498 5.098h-1.904l-.44.622h1.729v5.75l.615-.445V16.48zm7.09 8.031l-2.695-2.134-.557.623-.234-.238.644-.71V11.676h-1.7l-.058-.059 1.025-1.541h.732V8.09l3.106-3.348.06.06v5.274h2.343l.059.06-1.026 1.54h-1.377v8.98l1.612 1.246.615-.682.234.237-2.783 3.052zm-1.904-16.923l-.616.682v1.808h.616v-2.49zm0 14.167V11.677h-.616V22.11l2.49 1.956.44-.474-2.314-1.838z" fill="#99A8B1"/></svg>