<svg width="76" height="29" xmlns="http://www.w3.org/2000/svg"><path d="M42 7s.73-.82 1.792-1.279c.791-.314 1.437-.82 1.833-1.158C46.833 3.525 47 2.223 47 .003c.02 0-1.958-.073-3.042.603C42.521 1.498 42 2.946 42 7zm-7.44-5.597c-1.21 1.077-1.583 2.758-1.583 2.758l-4.112 15.424L25.48 6.94c-.33-1.314-.945-3.016-1.869-4.115-1.187-1.4-3.583-1.486-3.847-1.486-.264 0-2.704.086-3.891 1.508-.946 1.141-1.54 2.8-1.869 4.114l-3.386 12.646L6.573 4.16S6.222 2.459 4.99 1.403C2.99-.32 0 .046 0 .046l7.76 28.888s2.573.194 3.848-.474c1.67-.84 2.506-1.486 3.54-5.45.923-3.49 3.473-13.787 3.693-14.54.11-.367.263-1.229.923-1.229.681 0 .813.862.923 1.228.242.733 2.77 11.03 3.694 14.541 1.033 3.92 1.824 4.567 3.54 5.45 1.274.668 3.846.474 3.846.474L39.55.068S36.56-.3 34.56 1.403zm12.157 3.36s-.484.733-1.583 1.358c-.726.388-1.385.668-2.133 1.013-1.209.581-1.56 1.227-1.56 2.218v19.604s1.978.237 3.253-.388c1.65-.84 2.023-1.616 2.045-5.235V4.763h-.022zm19.412 9.803L76 .132s-4.155-.71-6.222 1.164c-1.319 1.163-2.814 3.296-2.814 3.296l-3.605 5.17c-.198.258-.396.56-.77.56-.373 0-.615-.28-.769-.56l-3.65-5.17s-1.45-2.112-2.813-3.296C53.312-.557 49.135.132 49.135.132l9.893 14.39-9.893 14.37s4.353.56 6.398-1.293c1.319-1.164 2.616-3.124 2.616-3.124l3.605-5.149c.198-.258.396-.56.77-.56.373 0 .615.28.769.56l3.605 5.15s1.342 1.895 2.66 3.123c2.045 1.852 6.332 1.292 6.332 1.292l-9.76-14.325z" fill="#99A8B1"/></svg>